<svg width="32" height="32" viewBox="0 0 32 32" fill="none" xmlns="http://www.w3.org/2000/svg"><path d="M32 23H0L16 6l16 17zM8.69 14.586l2.18 2.314 2.179-2.314-2.18-2.321-2.178 2.32zm2.18 7.764l2.179-2.315-2.18-2.32-2.178 2.32 2.179 2.315zm10.295 0l2.179-2.315-2.18-2.32-2.213 2.32 2.214 2.315zM18.59 9.533a.244.244 0 01-.052.061 162.05 162.05 0 01-2.059 2.191c-.06.062 0 .103 0 .158l2.008 2.136.094.089 2.18-2.307-2.171-2.328zM5.739 22.35l.086-.09 2.008-2.129a.13.13 0 00.05-.099.13.13 0 00-.05-.1c-.61-.63-1.201-1.273-1.802-1.91l-.292-.308-2.179 2.322 2.18 2.314zm5.517-10.496l2.179 2.314.069-.062 2.05-2.177c.069-.075 0-.116 0-.171l-2.008-2.122-.085-.09-2.205 2.308zm0 5.477l2.179 2.314.111-.11c.652-.684 1.313-1.369 1.974-2.101a.149.149 0 00.043-.048.12.12 0 000-.116.15.15 0 00-.043-.049c-.618-.65-1.236-1.3-1.845-1.958l-.24-.246-2.18 2.314zm10.295 0l2.179 2.314 2.179-2.314-2.18-2.314-2.178 2.314zm-2.96-2.32v.047l-2.068 2.198c-.068.061-.043.102 0 .157l1.922 2.054c.052.062.111.123.18.192l2.18-2.314-2.214-2.335zM8.313 19.63a.191.191 0 01.043-.054l2.068-2.198c.06-.069 0-.103 0-.158L8.39 15.085a.466.466 0 00-.094-.082l-2.17 2.308 2.187 2.32zm12.817-2.738l2.18-2.314-2.18-2.308-2.179 2.315 2.18 2.307zm-5.147-5.477L18.162 9.1l-2.145-2.266h-.043L13.881 9.08a.088.088 0 00-.02.055c0 .02.007.038.02.054l2.102 2.226zm0 5.477l2.179-2.314L16 12.265l-2.18 2.32 2.163 2.308zm0 5.477l2.179-2.314-2.18-2.321-2.161 2.3 2.162 2.335zm10.295 0l2.179-2.314-2.17-2.3h-.043l-2.102 2.211c-.07.075 0 .11 0 .158l1.715 1.855.42.39zm-25.043.13h3.912L3.21 20.446 1.235 22.5zm25.652 0h3.878l-1.94-2.054-1.938 2.054zm-11.505 0l-1.947-2.054-1.948 2.054h3.895zm6.374 0h3.878l-1.939-2.054-1.939 2.054zm-1.252 0l-1.939-2.054-1.939 2.054h3.878zm-10.295 0L8.27 20.446 6.331 22.5h3.878z" fill="#000"/></svg>