<svg width="256" height="256" viewBox="0 0 256 256" fill="none" xmlns="http://www.w3.org/2000/svg"><path d="M256 184H0L128 48l128 136zM69.525 116.685l17.432 18.513 17.434-18.513-17.434-18.568-17.432 18.568zm17.432 62.111l17.434-18.512-17.434-18.568-17.432 18.568 17.432 18.512zm82.36 0l17.432-18.512-17.432-18.568-17.708 18.568 17.708 18.512zm-20.59-102.533c-.104.18-.243.346-.412.492a1403.841 1403.841 0 01-16.471 17.528c-.481.493 0 .821 0 1.26l16.06 17.088.755.712 17.432-18.458-17.364-18.622zM45.915 178.796l.687-.711 16.06-17.034c.255-.214.399-.499.399-.795 0-.296-.144-.58-.4-.794-4.872-5.039-9.608-10.188-14.412-15.282l-2.334-2.464-17.432 18.568 17.432 18.512zM90.046 94.83l17.433 18.513.549-.492 16.403-17.418c.549-.603 0-.931 0-1.37l-16.06-16.979-.686-.712L90.046 94.83zm0 43.818l17.433 18.513.892-.876c5.216-5.477 10.501-10.955 15.785-16.815.148-.108.266-.239.347-.385a.952.952 0 000-.928 1.204 1.204 0 00-.347-.385c-4.941-5.204-9.882-10.407-14.756-15.665l-1.921-1.972-17.433 18.513zm82.36 0l17.432 18.513 17.433-18.513-17.433-18.513-17.432 18.513zm-23.679-18.567v.383l-16.541 17.582c-.549.493-.342.821 0 1.26l15.374 16.432c.412.492.892.985 1.441 1.533l17.433-18.513-17.707-18.677zm-82.222 36.971c.083-.16.199-.308.343-.438l16.54-17.582c.481-.548 0-.822 0-1.26l-16.265-17.089a3.735 3.735 0 00-.755-.657l-17.364 18.458 17.501 18.568zm102.538-21.909l17.432-18.513-17.432-18.458-17.434 18.513 17.434 18.458zm-41.18-43.818l17.433-18.513-17.159-18.13h-.343l-16.746 17.966a.703.703 0 00-.159.438c0 .155.055.307.159.438l16.815 17.801zm0 43.818l17.433-18.513L128 98.117l-17.433 18.568 17.296 18.458zm0 43.818l17.433-18.513-17.433-18.568-17.296 18.404 17.296 18.677zm82.359 0l17.433-18.513-17.365-18.403h-.342l-16.815 17.691c-.549.602 0 .876 0 1.26l13.726 14.843 3.363 3.122zM9.883 180.002H41.18L25.669 163.57 9.883 180.002zm205.212 0h31.022l-15.511-16.432-15.511 16.432zm-92.036 0l-15.58-16.432-15.58 16.432h31.16zm50.993 0h31.022l-15.511-16.432-15.511 16.432zm-10.02 0l-15.511-16.432-15.511 16.432h31.022zm-82.36 0l-15.51-16.432-15.511 16.432h31.022z" fill="#000"/></svg>